<svg xmlns="http://www.w3.org/2000/svg" width="70.067" height="70.067" viewBox="0 0 70.067 70.067"><defs><style>.a{fill:#fff;}</style></defs><path class="a" d="M176,117.953a2.919,2.919,0,0,0,5.839,0V82.919a2.919,2.919,0,1,0-5.839,0Zm0,0" transform="translate(-143.886 -65.403)"/><path class="a" d="M2.919,96A2.921,2.921,0,0,0,0,98.919v29.194a2.919,2.919,0,1,0,5.839,0V98.919A2.921,2.921,0,0,0,2.919,96Zm0,0" transform="translate(0 -78.483)"/><path class="a" d="M125.839,138.275V114.919a2.919,2.919,0,1,0-5.839,0v23.356a2.919,2.919,0,1,0,5.839,0Zm0,0" transform="translate(-98.104 -91.564)"/><path class="a" d="M66.919,161.517a2.921,2.921,0,0,0,2.919-2.919V146.919a2.919,2.919,0,1,0-5.839,0V158.6A2.921,2.921,0,0,0,66.919,161.517Zm0,0" transform="translate(-52.322 -117.725)"/><path class="a" d="M237.839,138.275V114.919a2.919,2.919,0,1,0-5.839,0v23.356a2.919,2.919,0,1,0,5.839,0Zm0,0" transform="translate(-189.668 -91.564)"/><path class="a" d="M354.919,96A2.921,2.921,0,0,0,352,98.919v29.194a2.919,2.919,0,1,0,5.839,0V98.919A2.921,2.921,0,0,0,354.919,96Zm0,0" transform="translate(-287.772 -78.483)"/><path class="a" d="M290.919,144A2.921,2.921,0,0,0,288,146.919V158.6a2.919,2.919,0,1,0,5.839,0V146.919A2.92,2.92,0,0,0,290.919,144Zm0,0" transform="translate(-235.45 -117.725)"/><path class="a" d="M176,341.839a2.919,2.919,0,0,0,5.839,0v-2.919a2.919,2.919,0,1,0-5.839,0Zm0,0" transform="translate(-143.886 -274.692)"/><path class="a" d="M178.919,8.758a2.921,2.921,0,0,0,2.919-2.919V2.919a2.919,2.919,0,0,0-5.839,0V5.839A2.921,2.921,0,0,0,178.919,8.758Zm0,0" transform="translate(-143.886)"/></svg>