<svg xmlns="http://www.w3.org/2000/svg" width="72.241" height="58.696" viewBox="0 0 72.241 58.696"><defs><style>.a{fill:#03a9f4;}</style></defs><path class="a" d="M72.241,54.949a30.878,30.878,0,0,1-8.534,2.339A14.727,14.727,0,0,0,70.223,49.1a29.6,29.6,0,0,1-9.391,3.585A14.809,14.809,0,0,0,35.213,62.814a15.25,15.25,0,0,0,.343,3.377A41.92,41.92,0,0,1,5.03,50.7,14.814,14.814,0,0,0,9.581,70.494,14.626,14.626,0,0,1,2.89,68.67v.163A14.878,14.878,0,0,0,14.755,83.385a14.782,14.782,0,0,1-3.883.488,13.1,13.1,0,0,1-2.8-.253A14.951,14.951,0,0,0,21.907,93.936a29.758,29.758,0,0,1-18.363,6.317A27.74,27.74,0,0,1,0,100.05,41.694,41.694,0,0,0,22.72,106.7c27.253,0,42.153-22.575,42.153-42.144,0-.655-.023-1.287-.054-1.914A29.545,29.545,0,0,0,72.241,54.949Z" transform="translate(0 -48)"/></svg>