<svg xmlns="http://www.w3.org/2000/svg" width="72.242" height="50.581" viewBox="0 0 72.242 50.581"><defs><style>.a{fill:red;}.b{fill:#fff;}</style></defs><path class="a" d="M70.753,7.915a9.051,9.051,0,0,0-6.367-6.368C58.733,0,36.12,0,36.12,0S13.508,0,7.855,1.488A9.236,9.236,0,0,0,1.488,7.915C0,13.567,0,25.29,0,25.29S0,37.073,1.488,42.666a9.053,9.053,0,0,0,6.368,6.368c5.712,1.547,28.266,1.547,28.266,1.547s22.612,0,28.266-1.488a9.051,9.051,0,0,0,6.368-6.367c1.488-5.653,1.488-17.376,1.488-17.376s.06-11.783-1.488-17.435Zm0,0" transform="translate(0 0)"/><path class="b" d="M204.969,124.145l18.8-10.83-18.8-10.83Zm0,0" transform="translate(-176.049 -88.024)"/></svg>